# xmcd CD database file
#
# Track frame offsets:
#	183
#	26625
#	47375
#	64330
#	83555
#	96765
#	117078
#	142198
#	162468
#
# Disc length: 2444 seconds
#
# Revision: 0
# Processed by: cddbd v1.4PL0 Copyright (c) Steve Scherf et al.
# Submitted via: CDex 1.50
#
DISCID=73098a09
DTITLE=Salome - Coração do Brasil
DYEAR=1900
DGENRE=Jazz
TTITLE0=Orfeu Negro (Manha do Carnaval)
TTITLE1=Ilusão (C'est bon l'amour)
TTITLE2=Beijo Beijinho(Cousin Cousine)
TTITLE3=Perfume do Lys
TTITLE4=Favela-Recuerdos (Recuerdos de la Alhambra)
TTITLE5=Amor desire cafe
TTITLE6=Vai Passar
TTITLE7=Meu Amor
TTITLE8=A Luz do sol (Ain't no sunshine)
EXTD=
EXTT0=
EXTT1=
EXTT2=
EXTT3=
EXTT4=
EXTT5=
EXTT6=
EXTT7=
EXTT8=
PLAYORDER=
